<svg width="128" height="38" viewBox="0 0 128 38" fill="none" xmlns="http://www.w3.org/2000/svg">
<g clip-path="url(#clip0_111_402)">
<g clip-path="url(#clip1_111_402)">
<path d="M24.3323 5.68658L12.138 34.5378L0 5.68658H9.64233L12.2061 14.2035L15.0393 5.68658H24.3323Z" fill="#0A4A44"/>
<path d="M62.1319 20.4267L70.9097 20.646C70.3314 25.0698 68.7584 28.4926 66.1907 30.9141C63.623 33.3357 60.2677 34.5436 56.125 34.5379C51.9251 34.5379 48.41 33.1655 45.5797 30.4208C42.7495 27.6761 41.3393 24.2678 41.3492 20.1959C41.3492 16.1029 42.7919 12.6599 45.6774 9.86714C48.5629 7.07433 52.1155 5.6789 56.3352 5.68082C60.4937 5.68082 63.9644 7.04933 66.7473 9.78635C68.6736 11.679 70.0364 14.317 70.8357 17.7003L61.8743 18.2917C60.8677 15.2854 58.9602 13.7823 56.1517 13.7823C55.3216 13.7575 54.4957 13.9064 53.7297 14.219C52.9637 14.5315 52.2753 15.0004 51.7109 15.5941C50.5464 16.8039 49.9652 18.3427 49.9672 20.2103C49.9672 22.0068 50.5386 23.4936 51.6813 24.6707C52.2352 25.2466 52.9082 25.7013 53.6559 26.0047C54.4036 26.3081 55.2089 26.4533 56.0184 26.4306C57.7947 26.4306 59.2098 25.9142 60.2638 24.8813C61.3177 23.8485 61.9404 22.3636 62.1319 20.4267Z" fill="#0A4A44"/>
<path d="M104.147 5.79622V26.1623C104.147 28.632 103.383 30.6458 101.856 32.2038C100.328 33.7617 98.3545 34.5398 95.9348 34.5378C93.0157 34.5378 90.7845 33.2424 89.2411 30.6516C88.2898 32.048 87.2714 33.0453 86.1859 33.6435C84.9445 34.2756 83.5564 34.5837 82.1566 34.5378C79.6224 34.5378 77.6804 33.7598 76.3304 32.2038C74.9804 30.6477 74.3064 28.406 74.3084 25.4785V5.79622H82.6954V24.261C82.6954 25.1477 82.7685 25.7324 82.9145 26.0152C83.0031 26.1632 83.1349 26.2822 83.293 26.3572C83.4511 26.4322 83.6285 26.4598 83.8027 26.4364C84.6277 26.4364 85.0411 25.7632 85.0431 24.4168V5.79622H93.4302V24.261C93.4302 25.1266 93.5042 25.7036 93.6582 25.9921C93.7439 26.1438 93.8743 26.267 94.0327 26.3457C94.191 26.4244 94.3699 26.455 94.5463 26.4335C95.3733 26.4335 95.7858 25.7084 95.7838 24.2581V5.79333L104.147 5.79622Z" fill="#0A4A44"/>
<path d="M119.9 20.0632V27.3106H115.853V34.4801H107.466V16.3788C107.466 12.9975 108.413 10.3701 110.308 8.49668C112.203 6.62328 114.867 5.68753 118.301 5.68946C121.605 5.68946 124.05 6.53864 125.635 8.23702C127.219 9.9354 128.009 12.5561 128.003 16.099V34.4801H119.604V16.6414C119.604 15.5681 119.474 14.8228 119.213 14.4054C118.953 13.988 118.491 13.7803 117.828 13.7822C116.519 13.7822 115.865 14.7353 115.865 16.6414V20.0632H119.9Z" fill="#0A4A44"/>
<path d="M36.7102 38V30.9776C36.7102 30.8246 36.7726 30.6778 36.8836 30.5696C36.9947 30.4614 37.1453 30.4006 37.3023 30.4006C37.4593 30.4006 37.6099 30.3398 37.721 30.2316C37.832 30.1234 37.8944 29.9766 37.8944 29.8235V23.3695C37.8944 23.2165 37.832 23.0697 37.721 22.9615C37.6099 22.8533 37.4593 22.7925 37.3023 22.7925C37.1453 22.7925 36.9947 22.7317 36.8836 22.6235C36.7726 22.5153 36.7102 22.3685 36.7102 22.2155V15.7788C36.7102 15.6257 36.7726 15.479 36.8836 15.3707C36.9947 15.2625 37.1453 15.2017 37.3023 15.2017C37.4593 15.2017 37.6099 15.1409 37.721 15.0327C37.832 14.9245 37.8944 14.7777 37.8944 14.6247V8.17933C37.8944 8.0263 37.832 7.87953 37.721 7.77131C37.6099 7.6631 37.4593 7.60231 37.3023 7.60231C37.1453 7.60231 36.9947 7.54151 36.8836 7.4333C36.7726 7.32509 36.7102 7.17832 36.7102 7.02528V0H28.9093V7.0224C28.9093 7.17543 28.8469 7.3222 28.7359 7.43042C28.6248 7.53863 28.4742 7.59942 28.3172 7.59942C28.1602 7.59942 28.0096 7.66022 27.8985 7.76843C27.7875 7.87664 27.7251 8.02341 27.7251 8.17645V14.6218C27.7251 14.7749 27.7875 14.9216 27.8985 15.0298C28.0096 15.1381 28.1602 15.1988 28.3172 15.1988C28.4742 15.1988 28.6248 15.2596 28.7359 15.3679C28.8469 15.4761 28.9093 15.6228 28.9093 15.7759V22.2155C28.9093 22.3685 28.8469 22.5153 28.7359 22.6235C28.6248 22.7317 28.4742 22.7925 28.3172 22.7925C28.1602 22.7925 28.0096 22.8533 27.8985 22.9615C27.7875 23.0697 27.7251 23.2165 27.7251 23.3695V29.812C27.7251 29.965 27.7875 30.1118 27.8985 30.22C28.0096 30.3282 28.1602 30.389 28.3172 30.389C28.4742 30.389 28.6248 30.4498 28.7359 30.558C28.8469 30.6663 28.9093 30.813 28.9093 30.9661V37.9885L36.7102 38Z" fill="#0A4A44"/>
</g>
</g>
<defs>
<clipPath id="clip0_111_402">
<rect width="128" height="38" fill="white"/>
</clipPath>
<clipPath id="clip1_111_402">
<rect width="128" height="38" fill="white"/>
</clipPath>
</defs>
</svg>
